Three avid bird watchers compete to spot the rarest birds in North America at a prestigious annual event.

 

Director: David Frankel
Writers: Howard Franklin (screenplay), Mark Obmascik (book)
Stars: Owen Wilson, Jack Black and Steve Martin

 

--------------------
[File Info]
--------------------
THE BIG YEAR (2011) DVDRip [H264 MP4][RoB]PR3DATOR RG

General

Complete name : THE BIG YEAR (2011) DVDRip [H264 MP4][RoB]PR3DATOR RG
Format : MPEG-4
Format profile : Base Media
Codec ID : isom
File size : 971 MiB
Duration : 1h 40mn
Overall bit rate : 1 357 Kbps
Encoded date : UTC 2012-01-18 06:12:35
Tagged date : UTC 2012-01-18 06:12:35
Writing application : Lavf51.12.1

Video #1

ID : 1
Format : AVC
Format/Info : Advanced Video Codec
Format profile : Baseline@L2.1
Format settings, CABAC : No
Format settings, ReFrames : 5 frames
Codec ID : avc1
Codec ID/Info : Advanced Video Coding
Duration : 1h 40mn
Bit rate mode : Variable
Bit rate : 1 200 Kbps
Width : 576 pixels
Height : 240 pixels
Display aspect ratio : 2.40:1
Frame rate mode : Constant
Frame rate : 23.976 fps
Color space : YUV
Chroma subsampling : 4:2:0
Bit depth : 8 bits
Scan type : Progressive
Bits/(Pixel*Frame) : 0.362
Stream size : 859 MiB (88%)
Encoded date : UTC 2012-01-18 06:12:35
Tagged date : UTC 2012-01-18 06:12:35

Audio #2

ID : 2
Format : AAC
Format/Info : Advanced Audio Codec
Format profile : LC
Codec ID : 40
Duration : 1h 40mn
Bit rate mode : Variable
Bit rate : 152 Kbps
Channel(s) : 2 channels
Channel positions : Front: L R
Sampling rate : 44.1 KHz
Compression mode : Lossy
Stream size : 109 MiB (11%)
Encoded date : UTC 2012-01-18 06:12:35
Tagged date : UTC 2012-01-18 06:12:35

